<?xml version="1.0" encoding="utf-8"?>
<!-- Generator: Adobe Illustrator 17.1.0, SVG Export Plug-In . SVG Version: 6.00 Build 0)  -->
<!DOCTYPE svg PUBLIC "-//W3C//DTD SVG 1.1//EN" "http://www.w3.org/Graphics/SVG/1.1/DTD/svg11.dtd">
<svg version="1.1" id="Layer_1" xmlns="http://www.w3.org/2000/svg" xmlns:xlink="http://www.w3.org/1999/xlink" x="0px" y="0px"
	 viewBox="0 0 397.9 66" enable-background="new 0 0 397.9 66" xml:space="preserve">
<path fill="#009444" d="M393,25.2c-0.9,8.2-1.8,16.4-2.7,24.5c-3.4-7.4-5.3-15.5-5.6-23.6c-1,6.4-2,12.7-2.9,19.1
	c-1.8-4.5-3.6-9-5.4-13.5c-1.5,4.8-3,9.6-4.5,14.5c-2.7-9.6-4.3-19.4-4.9-29.3c-1,9.3-2,18.6-3,27.8c-2.2-11.4-4.5-22.7-6.7-34.1
	c-1.5,12.3-2.4,24.8-2.7,37.2c-3-12.9-6-25.9-9-38.8c-2.4,13-3.5,26.1-3.3,39.3c-2.7-11.5-5.3-23-8-34.5
	c-0.6,11.9-1.2,23.8-1.8,35.7c-3.8-9-5.9-18.8-6.2-28.5c-1,9.6-2.1,19.2-3.1,28.8c-3.6-5-5.1-11.4-4.2-17.5
	c-1.8,6.7-3.6,13.5-5.4,20.2h-0.7c-1.4-7.1-2-14.5-1.7-21.7c-0.5,4.4-1.1,8.9-1.6,13.3c-0.2-3.9-0.3-7.9-0.5-11.8
	c-0.2,4.3-0.5,8.6-0.7,12.8c-1.1-9.8-2.1-19.5-3.2-29.3c-0.2,5.8-0.5,11.7-0.7,17.5c-2.3-10.1-4.6-20.2-6.9-30.3
	c-3.9,12.2-5.4,25.2-4.1,38c-2.6-13.7-5.2-27.3-7.8-41c-5.2,13.8-7.8,28.6-7.6,43.3c-3.8-7.7-6-16.3-6.3-24.9
	c-0.5,8.4-1.1,16.8-1.6,25.2c-4.1-8.6-7.2-17.6-9.1-26.9c-1.7,8-2.3,16.2-1.7,24.4c-2.6-9-4.5-18.1-5.8-27.3
	c-2.5,11.7-3.8,23.7-3.8,35.6c-1.7-10.1-3.4-20.3-5.1-30.4c-0.6,8-1.3,16.1-1.9,24.1c-1.3-8.2-2.5-16.4-3.8-24.6
	c-0.1,7.7-0.1,15.4-0.2,23.1c-2.5-8.7-4.2-17.7-5.1-26.8c-2,8.8-3.1,17.7-3.4,26.7c-1.8-11.9-3.7-23.8-5.5-35.7
	c-4,7.4-6.5,15.6-7.2,24c-1.4-3.8-2.9-7.6-4.3-11.5c-3.7,8.5-6.2,17.6-7.3,26.8c-0.7-5.7-1.3-11.3-2-17c-1.9,6-2.9,12.2-3,18.5
	c-1.6-8.8-3.2-17.5-4.7-26.3c-3.1,7.7-5.6,15.7-7.4,23.9c-2.3-8.3-4.7-16.6-7-24.9c-4.1,7.5-6.6,15.8-7.4,24.2
	c-2-6-3.1-12.3-3.4-18.6c-1.4,5.5-2.9,11-4.3,16.4c-0.9-8.9-1.4-17.7-1.5-26.6c-6.2,7.6-10,17-10.9,26.8c-2-6.9-3.4-14-4-21.2
	c-2.9,6.3-4.3,13.3-4.1,20.2c-3.5-7.7-7.1-15.4-10.6-23.1c-2.2,7.2-3.6,14.6-4.2,22.1c-2.8-7.7-5.6-15.5-8.4-23.2
	c-3.3,7.8-5.8,15.9-7.1,24.3c-2.4-8.1-4.2-16.3-5.5-24.6c-5.5,7.5-9.1,16.4-10.4,25.6c-0.5-8.3-1.7-16.6-3.6-24.7
	c-3.8,7.7-6,16.2-6.6,24.7c-2.2-6.1-3.6-12.6-4.3-19c-2.8,6.6-4.2,13.9-3.9,21.1c-3.2-8.1-6.4-16.1-9.7-24.2
	c-0.9,8.1-1.7,16.2-2.6,24.3c-1.2-9.8-2.5-19.6-3.7-29.4c-4.4,9-6.8,18.9-7.3,28.8c-0.8-11.2-2-22.4-3.7-33.6
	C48,20,44.5,32.6,44.9,45.1c-1.1-10-2.1-19.9-3.2-29.9c-1.6,9.2-2.3,18.5-2.1,27.8c-3.7-9.8-6.5-20-8.1-30.4
	c-2.4,11.6-4.1,23.4-5,35.2c-0.9-10-1.9-20-2.8-30c-1.6,5.3-2.6,10.7-3.2,16.2c0.1-6.8-0.9-13.6-3-20.1c-1.2,8.8-2.4,17.6-3.5,26.4
	c-0.1-7.2-0.8-14.5-2.3-21.6c-0.8,7.2-1.5,14.4-2.3,21.6c0.2-9.8-1.9-19.7-6-28.5C0.5,25.9,0,52.5,0,52.5V66h397.9V52.5L393,25.2z"
	/>
</svg>
