<?xml version="1.0" encoding="utf-8"?>
<!-- Generator: Adobe Illustrator 17.1.0, SVG Export Plug-In . SVG Version: 6.00 Build 0)  -->
<!DOCTYPE svg PUBLIC "-//W3C//DTD SVG 1.1//EN" "http://www.w3.org/Graphics/SVG/1.1/DTD/svg11.dtd">
<svg version="1.1" id="Layer_1" xmlns="http://www.w3.org/2000/svg" xmlns:xlink="http://www.w3.org/1999/xlink" x="0px" y="0px"
	 viewBox="5.3 25.6 489.7 447.2" enable-background="new 5.3 25.6 489.7 447.2" xml:space="preserve">
<path fill="#FFFFFF" d="M245.5,461.2c-1.2,0-2.3-0.1-3.5-0.2c15,19.5,65.4,13.1,70.5-6.9c0.8-3.3-0.6-6.3-3.2-8.8
	C291.4,456.1,267.3,461.2,245.5,461.2"/>
<path fill="#FFFFFF" d="M215.2,427.2c-8.8,0-17.2-0.6-25.3-1.6c10.1,10.5,26.3,16.3,43.9,18c4.3,0.4,8.6,0.6,13,0.6
	c3.5-0.1,7.1-0.3,10.5-0.5c9.2-0.9,18.2-2.7,26.3-5.4c1.2-0.4,2.5-0.8,3.6-1.3c5-1.8,9.6-4,13.6-6.6c9-5.5,15.5-12.7,17.6-21.1
	c0.8-3.5,0.4-6.8-1-9.8C290.7,417.8,251.6,427.2,215.2,427.2"/>
<path fill="#FFFFFF" d="M253,374.4c-18.7,0-36.4-1.7-52.8-5c-31.5-6.2-58.1-18.1-77.7-34.7c-9.4,9.8-12.9,21.2-6,33.3
	c9.7,17.1,27.6,28.6,49.2,35.1c5.4,1.7,10.9,3,16.6,4c14.8,2.7,30.6,3.4,46.2,2.4c23.3-1.5,46.2-7,64.6-15.7c4.3-2,8.3-4.2,12.1-6.6
	c5.3-3.4,10.1-7.1,14.1-11.2c3.4-3.5,6.3-7.1,8.6-11.1c-6.5,1.7-13.3,3.2-20,4.4C289.7,372.7,271.1,374.4,253,374.4"/>
<path fill="#FFFFFF" d="M281.5,289.1c-20.4,2.9-41.1,4.3-61.3,4.3h0c-16.5,0-32.3-1-47.6-2.8c-22.9-2.6-44.3-7-64-13.4
	c-0.5,6.7,0.9,13.5,5,20.6c2.8,5,6.3,9.5,10,13.9c3.8,4.4,8,8.4,12.7,12.1c8,6.4,17.2,11.8,27.3,16.3c24.3,10.9,53.5,16.4,83.5,17
	c29.4,0.7,59.4-3.3,86-11.3c5.6-1.6,11.2-3.5,16.5-5.5c35.4-13.6,62.2-35,69.1-62.3c2.8-11.4-0.1-21.7-7.1-30.9
	C375,268.5,329,282.6,281.5,289.1"/>
<path fill="#FFFFFF" d="M341.1,192.4c-13.1,2.8-26.6,5.3-40.4,7.4c-8.9,1.3-17.8,2.4-26.6,3.4c-18.3,2.1-36.4,3.5-54.1,4.4
	c-12.3,0.6-24.5,1-36.6,1c-8.9,0-17.7-0.2-26.4-0.5c-9.4-0.3-18.6-0.9-27.6-1.7c-9.7-0.8-19.3-2-29.5-3.4l-0.5-0.1l-1.1-0.2
	c-31.3-6.6-55.1-16.2-70.7-28.5c-11.9-9.4-17.5-19.3-20-28c-4.2,13.2-3,27.2,5.2,41.8c17.5,30.9,47.8,53.1,84.8,67.5
	c5.3,2.1,10.8,4,16.3,5.7c28.4,9,60,13.8,92.2,14.9c52.6,1.8,107-6.5,152.5-23.2c14.3-5.2,27.7-11.2,39.9-18
	c5.4-3.1,10.5-6.2,15.4-9.5c26.8-18.1,45.7-40.6,52.4-66.8c1-4.1,1.5-8,1.5-11.9c-2.8,1.8-5.7,3.5-8.9,5.3
	C429.4,168.3,387.8,182.5,341.1,192.4"/>
<path fill="#FFFFFF" d="M447.1,48.1c-24.7-7.2-58.2-10.7-92.6-10.7c-4.4,0-8.8,0.2-13.3,0.3c-28.3,0.8-57.1,3.4-85,8.5
	c-1.9,0.3-3.7,0.8-5.5,1.1c-17.8,3.5-34.5,8-48.5,13.1c-9.5,3.5-17.9,7.2-24.6,11c-10.1,5.8-17.3,12-20,18.1
	c-2.5,5.4-1.5,10.7,4.1,15.4c13.2,11,50.7,16.4,93.8,13.1c21.3-1.4,45.8-5.3,64.6-11.1c12.7-3.8,23.1-8.2,30.7-12.7
	c3.6-2.2,6.5-4.3,8.6-6.4c2-1.9,3.3-3.7,4.3-5.5c2.3-4.4,1.5-8.5-2-12.1C357,65.3,345.8,61.7,332,60c-10.8-1.4-23.8-1.5-37-0.7
	c-18.1,1.1-36.7,4.1-50.8,8.9c-5.8,2-10.7,4.1-14.4,6.3c-4.3,2.5-7.2,5-8.5,7.5c-3,4.7,1.3,9.8,12,12.1c11,2.6,27.6,2.8,43.3,0.6
	c16.9-2.2,31-7.2,36.5-12.1c1-0.8,1.6-1.5,2-2.3c1-1.6,1.2-3.1,0.6-4.4c-1.1-2-4-3.9-8.7-4.9c-3.2-0.8-7.1-1.3-11.2-1.5
	c4.1,0.1,7.9,0.4,11,1c6.3,1.1,10.5,3,11.6,5.5c0.8,1.6,0.5,3.3-0.5,5c-0.9,1.4-2.1,2.8-4.1,4.2C304.4,92,284,97.7,260.8,99
	c-22.8,1.5-42.7-1.3-50.3-6.8c-6.2-4.1-4.3-10.3,3.3-16.2c1.5-1.1,3-2.2,4.8-3.3c10.8-6.3,28.8-12.2,48.7-15.7
	c0.3-0.1,0.6-0.1,1-0.2c16.2-2.8,36.2-4.6,54.3-4.8c4-0.1,7.9-0.1,11.7,0c22.3,0.6,42.5,3.7,55.3,9c9.7,3.8,15.5,9.3,17.2,15.3
	c0.7,2.7,0.8,5.4,0.1,8.2c-2.2,8.2-11.3,16.9-26.1,25c-3.8,2.2-8,4.3-12.6,6.3c-4.4,2-9.1,3.8-14.1,5.6c-21.4,7.8-47.5,14.1-75,18
	c-33.8,4.7-70,6.3-99.5,4.6c-4-0.2-7.7-0.5-11.4-0.8c-23-2-41.3-5.9-54.5-11c-14.6-5.6-23.1-12.8-24.9-20.5
	c-3.8-13.2,12.8-28.7,34-40.9c8.2-4.7,17.5-9.1,27.4-13.1c13.7-5.6,28.4-10.6,43.1-14.8c18.7-5.3,37.8-9.6,55.8-12.9
	c5.5-1.1,11-2,16.2-2.8c3.7-0.6,7.3-1.2,11-1.7c-11.6,1.3-23.2,2.8-34.6,4.6c-7.6,1.2-15.2,2.3-22.7,3.7
	c-24.4,4.4-48.7,10.1-71.8,17c-52.1,15.5-94.5,37-113.4,59.3c-14.6,17.3-15.2,35,4.6,50.6c13.5,10.7,35.2,19.2,63.6,25.2
	c0.2,0.1,0.4,0.1,0.6,0.2c9,1.3,18.4,2.5,28.5,3.3c26.9,2.3,56.2,2.7,87.2,1.2c18-0.9,36.5-2.3,55.6-4.6c8.1-0.9,16.3-2,24.6-3.2
	c61.6-9.2,116.7-26,152.4-46c5.2-2.8,9.8-5.7,14-8.5c5.4-3.6,10.1-7.2,14-10.8C509.1,89.4,496,62.8,447.1,48.1"/>
</svg>
